# xmcd
#
# Track frame offsets: 
#        150
#        13696
#        29892
#        43886
#        59307
#        79528
#        91195
#        108030
#        121089
#        131251
#        148201
#        164149
#        177891
#        192807
#        215352
#        232585
#        246268
#        258634
#        277087
#
# Disc length: 3969 seconds
#
# Revision: 0
# Processed by: cddbd v1.5.2PL0 Copyright (c) Steve Scherf et al.
# Submitted via: ExactAudioCopyFreeDBPlugin 1.0
#
DISCID=0b0f7f13
DTITLE=The Ovations - Hooked on a Feeling - Having a Party:  The Compl
DTITLE=ete Sounds of Memphis Albums
DYEAR=2009
DGENRE=Soul
TTITLE0=Hooked on a Feeling
TTITLE1=I Can't Be Satisfied
TTITLE2=One in a Million
TTITLE3=Take It from One Who Knows
TTITLE4=Medley:  Where You There - Touch the Hem of His Garment
TTITLE5=So Nice to Be Loved By You
TTITLE6=Touching Me
TTITLE7=Don't Break Your Promise
TTITLE8=Mr. River
TTITLE9=You'll Never Know
TTITLE10=Having a Party
TTITLE11=Your Love is Like a Song to Me
TTITLE12=Born on a Back Street
TTITLE13=My Nest is Still Warm (My Bird is Gone)
TTITLE14=You Send Me
TTITLE15=Under the Banana Tree
TTITLE16=Don't Look Back
TTITLE17=I Can't Believe It's Over
TTITLE18=A Change is Gonna Come
EXTD=
EXTT0=
EXTT1=
EXTT2=
EXTT3=
EXTT4=
EXTT5=
EXTT6=
EXTT7=
EXTT8=
EXTT9=
EXTT10=
EXTT11=
EXTT12=
EXTT13=
EXTT14=
EXTT15=
EXTT16=
EXTT17=
EXTT18=
PLAYORDER=
